<?xml version="1.0" standalone="no"?>
<!DOCTYPE svg PUBLIC "-//W3C//DTD SVG 20010904//EN"
 "http://www.w3.org/TR/2001/REC-SVG-20010904/DTD/svg10.dtd">
<svg version="1.0" xmlns="http://www.w3.org/2000/svg"
 width="866.000000pt" height="866.000000pt" viewBox="0 0 866.000000 866.000000"
 preserveAspectRatio="xMidYMid meet">
<metadata>
Created by potrace 1.14, written by Peter Selinger 2001-2017
</metadata>
<g transform="translate(0.000000,866.000000) scale(0.100000,-0.100000)"
fill="#000000" stroke="none">
<path d="M885 5520 c-100 -21 -144 -94 -136 -222 0 -10 7 -18 15 -18 18 0 27
-35 13 -49 -8 -8 -8 -11 1 -11 8 0 9 -7 2 -25 -5 -14 -6 -25 -1 -25 9 0 11
-30 2 -31 -3 0 -19 -3 -35 -5 -27 -5 -28 -3 -24 25 5 36 -2 38 -93 35 -74 -3
-128 -25 -170 -71 -55 -60 -53 -35 -53 -873 0 -731 1 -777 18 -810 29 -55 90
-105 138 -114 13 -3 25 -5 28 -6 3 -1 29 -1 59 0 37 1 51 -2 46 -10 -26 -42
-11 -109 30 -136 78 -51 171 28 138 117 l-10 27 243 0 c134 1 244 -2 244 -7 0
-4 -6 -16 -14 -26 -25 -34 11 -105 62 -123 74 -24 151 57 116 123 -16 31 -15
32 77 38 48 3 76 11 107 31 l42 26 106 -105 c140 -138 157 -152 185 -149 13 1
29 3 35 3 7 1 26 14 43 30 24 22 31 38 31 65 0 33 -13 49 -172 210 l-173 174
1 713 c0 513 -3 722 -11 741 -17 41 -65 91 -106 111 -38 18 -168 30 -189 17
-6 -4 -11 -13 -10 -21 5 -33 -1 -40 -27 -37 -28 3 -28 4 -29 81 0 67 2 77 17
77 29 0 19 109 -14 159 -45 67 -74 75 -302 76 -110 0 -213 -2 -230 -5z m427
-127 c12 -11 18 -30 18 -58 0 -32 4 -44 18 -47 14 -4 17 -17 17 -79 l-1 -74
-267 -2 -267 -1 0 73 c0 64 2 73 19 78 17 4 19 12 16 47 -3 31 1 46 16 61 17
17 34 19 216 19 169 0 199 -2 215 -17z m-642 -258 c0 -5 7 -19 16 -30 14 -19
27 -20 407 -21 255 0 397 3 406 10 7 6 17 20 21 32 7 18 16 21 47 20 63 -4
110 -25 140 -64 l28 -37 2 -245 c2 -135 3 -247 4 -250 1 -3 0 -9 -1 -15 -2
-11 -1 -618 1 -625 1 -3 0 -9 -1 -15 -3 -12 -2 -86 0 -100 1 -5 1 -14 0 -20
-1 -5 -2 -34 -1 -62 1 -29 0 -53 -4 -53 -3 0 -45 41 -95 90 l-89 90 24 36 c68
100 95 255 71 403 -16 100 -84 223 -168 304 -50 49 -144 103 -220 128 -100 33
-253 33 -348 0 -196 -68 -332 -215 -384 -413 -15 -59 -19 -238 -5 -248 4 -3
10 -19 13 -35 2 -17 5 -31 5 -32 1 -2 0 -4 -1 -5 -3 -6 65 -123 76 -130 6 -5
7 -8 1 -8 -5 0 26 -35 70 -78 52 -49 104 -88 145 -109 162 -79 362 -77 519 8
30 16 59 29 64 29 5 0 70 -61 144 -136 108 -108 132 -138 123 -149 -29 -35
-76 -38 -595 -38 -443 0 -514 2 -540 15 -38 20 -69 56 -82 94 -6 18 -9 320 -8
794 l1 765 24 37 c14 21 33 40 43 44 9 3 17 10 17 16 0 6 3 9 6 6 3 -3 17 -3
32 2 38 10 92 8 92 -5z m547 -557 c45 -16 116 -57 148 -85 36 -32 95 -110 88
-116 -3 -4 -2 -7 4 -7 6 0 14 -10 18 -22 4 -13 9 -27 11 -33 47 -137 34 -263
-40 -380 -51 -82 -112 -133 -207 -171 -137 -56 -303 -30 -425 67 -56 44 -127
148 -140 204 -23 101 -23 186 0 250 5 11 13 34 19 50 38 105 148 205 271 246
62 20 192 18 253 -3z"/>
<path d="M5203 5348 c-68 -10 -150 -48 -189 -87 -35 -35 -69 -97 -68 -123 1
-10 -3 -18 -8 -18 -5 0 -7 -4 -3 -10 3 -5 7 -32 9 -59 8 -107 86 -183 247
-237 148 -50 180 -79 154 -142 -18 -41 -54 -55 -128 -49 -58 5 -167 49 -167
68 0 5 -5 9 -12 9 -13 0 -127 -120 -128 -135 0 -14 115 -88 164 -104 43 -15
81 -20 170 -25 156 -8 291 56 348 165 19 36 23 58 22 129 0 94 -11 124 -65
178 -27 28 -155 99 -192 106 -75 16 -146 52 -148 75 -5 58 26 83 95 80 60 -3
101 -15 139 -41 15 -11 33 -18 41 -16 7 2 36 30 64 63 l51 60 -27 23 c-84 70
-240 108 -369 90z"/>
<path d="M2610 5080 c-1 -138 -1 -306 -1 -375 0 -69 0 -153 1 -186 l0 -61 233
4 c201 5 241 8 297 26 66 22 155 85 144 103 -3 5 -1 9 5 9 19 0 31 128 17 185
-10 41 -58 87 -121 116 -33 15 -52 28 -42 28 31 2 98 53 117 90 16 34 20 98 8
154 -12 52 -98 119 -171 133 -12 2 -43 8 -70 13 -26 4 -130 9 -232 10 l-185 1
0 -250z m379 53 c25 -22 34 -66 19 -98 -13 -28 -48 -42 -102 -41 l-40 1 -1 65
c0 36 1 71 3 78 6 19 96 15 121 -5z m38 -340 c25 -31 28 -55 13 -100 -12 -34
-45 -48 -125 -52 l-50 -2 2 88 c0 48 2 92 2 97 1 5 31 6 68 3 59 -4 70 -9 90
-34z"/>
<path d="M3565 5318 c-2 -7 -13 -44 -24 -83 -11 -38 -27 -95 -36 -125 -10 -30
-18 -59 -20 -65 -1 -5 -10 -37 -20 -70 -10 -33 -20 -64 -21 -70 -2 -5 -5 -19
-8 -30 -3 -11 -10 -36 -16 -55 -6 -19 -13 -46 -16 -60 -3 -13 -10 -30 -16 -37
-6 -7 -8 -13 -5 -13 3 0 -2 -21 -10 -47 -8 -27 -16 -57 -18 -68 -2 -11 -10
-39 -19 -62 -8 -24 -13 -43 -9 -43 3 0 0 -7 -7 -15 -11 -13 4 -15 123 -15 78
0 138 4 142 10 3 5 8 27 10 47 2 21 4 38 5 38 1 0 3 7 5 16 11 60 9 59 115 59
113 0 100 13 126 -120 10 -51 6 -50 148 -50 153 0 141 -11 107 98 -10 34 -17
62 -14 62 3 0 1 6 -4 13 -9 10 -15 28 -29 82 -12 49 -35 128 -47 165 -22 68
-42 144 -39 153 1 4 -3 7 -10 7 -6 0 -9 3 -5 6 3 3 -1 24 -9 46 -8 23 -16 50
-19 62 -14 67 -39 153 -47 162 -13 17 -307 18 -313 2z m170 -244 c2 -21 7 -52
11 -69 4 -16 7 -38 8 -47 0 -10 3 -18 6 -18 3 0 6 -8 7 -17 0 -10 4 -40 7 -68
l7 -50 -48 2 c-26 1 -56 2 -66 2 -14 1 -17 6 -11 24 4 12 8 32 10 44 1 11 5
29 8 40 3 10 8 35 12 57 3 21 8 48 10 60 7 31 14 69 16 84 3 26 19 -6 23 -44z"/>
<path d="M4168 5323 c-3 -4 -4 -199 -4 -433 l1 -425 129 0 129 0 0 153 0 152
24 0 c18 0 30 -14 58 -70 19 -38 35 -72 35 -75 0 -3 4 -11 10 -18 6 -6 26 -41
45 -77 l33 -65 147 -3 146 -3 -25 34 c-14 19 -26 37 -26 41 0 4 -16 31 -35 61
-19 30 -31 55 -27 55 4 0 2 4 -3 8 -13 9 -65 89 -65 99 0 5 -9 19 -19 32 l-19
25 40 29 c87 63 118 123 112 222 -5 83 -6 87 -38 138 -34 54 -102 95 -188 112
-66 14 -454 21 -460 8z m377 -185 c49 -22 64 -101 29 -155 -21 -33 -49 -44
-102 -41 l-47 3 -2 103 -2 102 49 0 c27 0 61 -5 75 -12z"/>
<path d="M5855 5263 c-11 -38 -20 -70 -21 -73 0 -3 -3 -12 -7 -20 -3 -8 -13
-42 -22 -75 -9 -33 -19 -67 -22 -75 -3 -8 -7 -19 -8 -25 -5 -21 -55 -194 -75
-260 -24 -79 -31 -103 -35 -125 -1 -8 -5 -22 -8 -30 -16 -45 -20 -58 -27 -87
l-8 -33 133 0 133 0 6 28 c4 15 9 41 12 57 3 17 7 37 9 45 2 8 4 20 4 27 1 9
30 12 108 10 98 -2 106 -4 108 -22 2 -17 15 -96 21 -117 1 -5 2 -12 3 -18 1
-12 271 -14 271 -2 0 4 -5 25 -12 47 -6 22 -12 42 -13 45 -3 12 -37 131 -56
191 -11 37 -21 75 -23 85 -2 11 -11 39 -20 64 -9 25 -16 53 -16 63 0 9 -4 25
-9 35 -6 9 -13 31 -17 47 -10 39 -11 45 -14 48 -1 1 -3 9 -5 17 -1 8 -9 35
-16 60 -7 25 -13 48 -15 53 -1 4 -3 9 -4 12 -1 3 -3 8 -5 13 -1 4 -5 21 -10
37 -4 17 -13 33 -19 37 -6 4 -76 8 -157 8 l-145 0 -19 -67z m199 -261 c3 -20
10 -59 16 -87 18 -87 20 -105 13 -106 -11 -1 -84 -1 -105 0 -17 1 -18 16 -3
81 3 14 8 41 11 60 7 45 12 72 29 150 2 8 4 20 5 25 2 13 27 -77 34 -123z"/>
<path d="M6470 4895 c0 -391 2 -434 16 -437 9 -2 60 -2 114 0 l98 3 -3 217
c-3 188 -7 265 -18 332 -1 8 -6 22 -11 30 -8 13 -7 13 6 0 13 -13 21 -35 42
-120 3 -8 9 -27 15 -42 6 -16 8 -28 5 -28 -4 0 -2 -6 3 -12 6 -7 13 -26 17
-43 4 -16 18 -65 31 -107 14 -42 27 -87 29 -100 3 -13 5 -24 7 -25 1 -2 2 -6
3 -10 1 -5 8 -27 16 -50 l13 -43 54 0 c29 -1 96 -1 148 -1 52 0 101 0 108 1
10 0 12 85 11 423 0 232 -2 427 -2 434 -2 9 -33 12 -112 12 l-110 -1 -1 -42
c-4 -187 3 -385 16 -476 11 -75 -9 -33 -54 115 -23 77 -56 185 -72 240 -17 55
-35 108 -40 117 -5 10 -9 25 -9 33 0 13 -23 15 -160 14 l-160 0 0 -434z"/>
<path d="M7252 5232 l3 -97 99 0 100 0 7 -27 c4 -16 4 -30 -1 -33 -4 -3 -4
-21 0 -40 4 -19 5 -37 1 -39 -3 -2 -4 -48 -1 -101 3 -53 2 -99 -3 -102 -4 -2
-5 -8 -3 -12 4 -6 6 -65 6 -206 0 -11 0 -41 0 -67 l0 -47 93 -3 c50 -2 108 -1
128 2 l36 5 -1 65 c-1 36 2 72 6 81 4 9 4 19 1 23 -9 8 -10 206 -1 206 4 0 4
12 0 28 -6 22 -8 163 -3 247 1 19 8 20 100 20 82 0 99 2 100 15 0 8 2 26 4 40
3 14 8 51 12 82 l7 58 -346 -1 -347 0 3 -97z"/>
<path d="M8005 5317 c-2 -7 -3 -32 -1 -57 1 -25 -2 -51 -7 -57 -5 -7 -6 -13
-1 -13 5 0 9 -34 9 -75 0 -41 -4 -75 -8 -75 -5 0 -5 -6 -1 -12 10 -16 11 -269
1 -275 -4 -2 -4 -9 -1 -15 10 -16 11 -188 1 -188 -5 0 -5 -5 -1 -12 4 -7 8
-26 8 -43 l1 -30 128 -3 128 -3 -1 187 c-1 102 0 188 3 190 3 3 1 21 -3 40 -4
19 -4 36 0 39 4 3 4 21 0 40 -4 20 -4 38 1 41 5 3 7 10 3 15 -8 14 -9 103 0
117 4 7 2 12 -5 12 -9 0 -10 3 -2 11 7 7 8 23 3 45 -4 19 -5 36 -1 38 3 2 5
25 3 49 l-4 46 -125 0 c-87 0 -125 -4 -128 -12z"/>
<path d="M5648 4265 c-2 -2 -19 -5 -39 -8 -51 -6 -138 -48 -175 -83 -43 -40
-80 -100 -95 -154 -7 -25 -16 -49 -19 -55 -13 -18 -8 -230 6 -286 29 -114 99
-206 189 -248 149 -70 360 -34 462 79 55 60 101 192 98 283 0 20 3 37 8 37 4
0 6 4 3 8 -3 5 -7 31 -10 59 -4 42 -15 91 -31 143 -31 97 -129 187 -230 211
-47 11 -160 20 -167 14z m129 -210 c33 -37 46 -97 46 -210 1 -205 -32 -274
-135 -275 -46 0 -93 38 -104 83 -4 17 -9 35 -10 40 -1 4 -3 8 -4 10 -1 1 -3
49 -4 107 -2 115 15 213 42 244 44 49 127 50 169 1z"/>
<path d="M2614 4238 c-6 -10 -6 -809 -1 -815 7 -7 513 -7 524 0 5 3 9 41 9 84
l-1 78 -146 3 -145 3 0 77 c0 42 4 80 8 83 5 3 55 5 111 4 56 -1 107 1 112 6
6 4 10 40 9 81 l0 73 -120 3 -120 3 0 74 c-1 62 2 75 15 76 9 0 69 1 134 1
127 0 124 -2 131 58 3 19 5 35 6 35 1 0 4 17 5 38 3 32 1 37 -18 38 -170 4
-510 2 -513 -3z"/>
<path d="M3223 4242 c-30 -3 -44 -16 -25 -24 4 -1 18 -23 31 -48 104 -199 146
-278 156 -293 10 -15 8 -27 -13 -70 -14 -29 -29 -53 -34 -55 -4 -2 -8 -9 -8
-15 0 -13 -136 -285 -152 -304 -12 -14 1 -15 162 -14 89 1 118 10 104 33 -3 4
0 8 6 8 6 0 9 4 6 8 -2 4 1 21 9 37 7 17 26 65 42 107 25 69 43 97 43 68 0 -6
8 -29 19 -53 31 -71 74 -178 75 -189 2 -15 16 -18 87 -19 164 -2 192 0 182 14
-6 6 -59 106 -118 221 -82 159 -105 213 -98 225 9 15 54 96 92 166 9 17 18 32
22 35 3 3 13 21 22 40 10 19 29 54 43 78 28 48 37 44 -81 44 -166 0 -150 4
-175 -54 -64 -154 -90 -198 -90 -153 0 8 -4 23 -9 33 -6 9 -22 50 -37 90 -14
41 -33 76 -41 79 -16 6 -171 10 -220 5z"/>
<path d="M3978 4239 c-10 -7 -15 -806 -4 -816 10 -11 236 -9 237 2 0 6 1 64 2
129 l2 119 66 3 c140 5 224 36 283 105 87 102 78 295 -17 375 -44 37 -127 73
-188 80 -68 8 -368 11 -381 3z m359 -187 c34 -19 47 -72 31 -132 -14 -50 -43
-70 -104 -70 l-51 0 0 108 c0 100 2 107 21 113 24 6 72 -3 103 -19z"/>
<path d="M4711 4235 c-9 -13 -8 -801 1 -810 5 -5 442 -10 522 -5 4 0 6 6 3 14
-3 8 -3 17 1 20 6 7 7 10 15 97 l6 56 -149 -1 c-82 0 -152 3 -155 6 -4 4 -6
146 -6 317 0 239 -2 311 -12 312 -108 5 -220 2 -226 -6z"/>
<path d="M6171 4235 c-9 -13 -7 -802 2 -811 7 -7 226 -8 233 -1 5 5 6 248 1
253 -12 12 6 34 27 34 22 0 27 -7 127 -202 22 -43 45 -81 51 -84 9 -6 79 -7
226 -5 l42 1 -25 40 c-14 22 -25 44 -25 50 0 5 -4 10 -8 10 -5 0 -18 19 -30
43 -13 23 -33 60 -47 82 -13 22 -33 56 -44 76 l-20 36 45 34 c52 39 82 83 90
131 28 169 -42 273 -207 307 -71 15 -428 20 -438 6z m377 -189 c25 -24 30 -53
19 -107 -9 -42 -41 -61 -110 -63 l-42 -1 -3 89 c-2 49 -1 95 2 102 8 21 107 6
134 -20z"/>
<path d="M6929 4242 c-12 -2 -14 -64 -13 -407 0 -223 3 -408 7 -411 7 -8 512
-8 524 -1 7 4 10 124 4 160 0 4 -65 7 -144 7 l-143 0 0 82 1 82 115 2 c63 1
117 2 120 3 3 0 5 36 5 78 l0 78 -120 5 -120 5 -1 73 c-1 67 0 72 20 73 12 0
72 1 134 1 76 0 115 4 117 12 2 6 7 29 10 51 3 22 8 55 11 73 5 30 3 32 -23
33 -118 2 -492 3 -504 1z"/>
<path d="M7568 4240 l-22 -6 -1 -398 c0 -219 3 -403 6 -408 7 -11 226 -14 236
-4 3 2 5 68 5 145 l0 141 23 0 c25 0 23 3 143 -232 13 -27 28 -51 33 -54 13
-8 248 -8 257 0 3 4 0 17 -7 29 -8 12 -19 31 -25 42 -6 11 -13 22 -16 25 -5 5
-22 33 -47 80 -8 14 -23 39 -33 55 -11 17 -28 46 -39 66 l-20 36 49 37 c105
80 125 227 47 344 -30 45 -124 89 -207 98 -82 8 -352 11 -382 4z m361 -195
c19 -19 24 -34 24 -71 -1 -67 -32 -96 -104 -98 l-54 -1 -2 90 c-2 50 -1 95 1
101 8 22 108 6 135 -21z"/>
</g>
</svg>
